<svg width="1880" height="871" aria-label="A chart." style="overflow: hidden;"><defs id="_ABSTRACT_RENDERER_ID_7"><clipPath id="_ABSTRACT_RENDERER_ID_8"><rect x="299" y="167" width="1282" height="538"></rect></clipPath></defs><rect x="0" y="0" width="1880" height="871" stroke="none" stroke-width="0" fill="#ffffff"></rect><g><text text-anchor="start" x="299" y="135.9" font-family="Arial" font-size="14" font-weight="bold" stroke="none" stroke-width="0" fill="#000000">Sentinel Surface Reflectance Spectra</text><rect x="299" y="124" width="1282" height="14" stroke="none" stroke-width="0" fill-opacity="0" fill="#ffffff"></rect></g><g><rect x="1599" y="167" width="263" height="192" stroke="none" stroke-width="0" fill-opacity="0" fill="#ffffff"></rect><g column-id="Water"><rect x="1599" y="167" width="263" height="18" stroke="none" stroke-width="0" fill-opacity="0" fill="#ffffff"></rect><g><text text-anchor="start" x="1642" y="182.3" font-family="Arial" font-size="18" stroke="none" stroke-width="0" fill="#222222">Water</text></g><path d="M1599,176L1635,176" stroke="#0000ff" stroke-width="3" fill-opacity="1" fill="none"></path><circle cx="1617" cy="176" r="3.5" stroke="none" stroke-width="0" fill="#0000ff"></circle></g><g column-id="Agriculture"><rect x="1599" y="196" width="263" height="18" stroke="none" stroke-width="0" fill-opacity="0" fill="#ffffff"></rect><g><text text-anchor="start" x="1642" y="211.3" font-family="Arial" font-size="18" stroke="none" stroke-width="0" fill="#222222">Agriculture</text></g><path d="M1599,205L1635,205" stroke="#008000" stroke-width="3" fill-opacity="1" fill="none"></path><circle cx="1617" cy="205" r="3.5" stroke="none" stroke-width="0" fill="#008000"></circle></g><g column-id="Urban"><rect x="1599" y="225" width="263" height="18" stroke="none" stroke-width="0" fill-opacity="0" fill="#ffffff"></rect><g><text text-anchor="start" x="1642" y="240.3" font-family="Arial" font-size="18" stroke="none" stroke-width="0" fill="#222222">Urban</text></g><path d="M1599,234L1635,234" stroke="#eb0000" stroke-width="3" fill-opacity="1" fill="none"></path><circle cx="1617" cy="234" r="3.5" stroke="none" stroke-width="0" fill="#eb0000"></circle></g><g column-id="Forest"><rect x="1599" y="254" width="263" height="18" stroke="none" stroke-width="0" fill-opacity="0" fill="#ffffff"></rect><g><text text-anchor="start" x="1642" y="269.3" font-family="Arial" font-size="18" stroke="none" stroke-width="0" fill="#222222">Forest</text></g><path d="M1599,263L1635,263" stroke="#1c5f2c" stroke-width="3" fill-opacity="1" fill="none"></path><circle cx="1617" cy="263" r="3.5" stroke="none" stroke-width="0" fill="#1c5f2c"></circle></g><g column-id="Sparse Vegetation"><rect x="1599" y="283" width="263" height="18" stroke="none" stroke-width="0" fill-opacity="0" fill="#ffffff"></rect><g><text text-anchor="start" x="1642" y="298.3" font-family="Arial" font-size="18" stroke="none" stroke-width="0" fill="#222222">Sparse Vegetation</text></g><path d="M1599,292L1635,292" stroke="#91af40" stroke-width="3" fill-opacity="1" fill="none"></path><circle cx="1617" cy="292" r="3.5" stroke="none" stroke-width="0" fill="#91af40"></circle></g><g column-id="Bare Soil"><rect x="1599" y="312" width="263" height="18" stroke="none" stroke-width="0" fill-opacity="0" fill="#ffffff"></rect><g><text text-anchor="start" x="1642" y="327.3" font-family="Arial" font-size="18" stroke="none" stroke-width="0" fill="#222222">Bare Soil</text></g><path d="M1599,321L1635,321" stroke="#ab6c28" stroke-width="3" fill-opacity="1" fill="none"></path><circle cx="1617" cy="321" r="3.5" stroke="none" stroke-width="0" fill="#ab6c28"></circle></g><g column-id="Sand Beach"><rect x="1599" y="341" width="263" height="18" stroke="none" stroke-width="0" fill-opacity="0" fill="#ffffff"></rect><g><text text-anchor="start" x="1642" y="356.3" font-family="Arial" font-size="18" stroke="none" stroke-width="0" fill="#222222">Sand Beach</text></g><path d="M1599,350L1635,350" stroke="#f7e084" stroke-width="3" fill-opacity="1" fill="none"></path><circle cx="1617" cy="350" r="3.5" stroke="none" stroke-width="0" fill="#f7e084"></circle></g></g><g><rect x="299" y="167" width="1282" height="538" stroke="none" stroke-width="0" fill-opacity="0" fill="#ffffff"></rect><g clip-path="url(https://code.earthengine.google.com/#_ABSTRACT_RENDERER_ID_8)"><g><rect x="299" y="704" width="1282" height="1" stroke="none" stroke-width="0" fill="#cccccc"></rect><rect x="299" y="650" width="1282" height="1" stroke="none" stroke-width="0" fill="#cccccc"></rect><rect x="299" y="597" width="1282" height="1" stroke="none" stroke-width="0" fill="#cccccc"></rect><rect x="299" y="543" width="1282" height="1" stroke="none" stroke-width="0" fill="#cccccc"></rect><rect x="299" y="489" width="1282" height="1" stroke="none" stroke-width="0" fill="#cccccc"></rect><rect x="299" y="436" width="1282" height="1" stroke="none" stroke-width="0" fill="#cccccc"></rect><rect x="299" y="382" width="1282" height="1" stroke="none" stroke-width="0" fill="#cccccc"></rect><rect x="299" y="328" width="1282" height="1" stroke="none" stroke-width="0" fill="#cccccc"></rect><rect x="299" y="274" width="1282" height="1" stroke="none" stroke-width="0" fill="#cccccc"></rect><rect x="299" y="221" width="1282" height="1" stroke="none" stroke-width="0" fill="#cccccc"></rect><rect x="299" y="167" width="1282" height="1" stroke="none" stroke-width="0" fill="#cccccc"></rect><rect x="299" y="677" width="1282" height="1" stroke="none" stroke-width="0" fill="#ebebeb"></rect><rect x="299" y="623" width="1282" height="1" stroke="none" stroke-width="0" fill="#ebebeb"></rect><rect x="299" y="570" width="1282" height="1" stroke="none" stroke-width="0" fill="#ebebeb"></rect><rect x="299" y="516" width="1282" height="1" stroke="none" stroke-width="0" fill="#ebebeb"></rect><rect x="299" y="462" width="1282" height="1" stroke="none" stroke-width="0" fill="#ebebeb"></rect><rect x="299" y="409" width="1282" height="1" stroke="none" stroke-width="0" fill="#ebebeb"></rect><rect x="299" y="355" width="1282" height="1" stroke="none" stroke-width="0" fill="#ebebeb"></rect><rect x="299" y="301" width="1282" height="1" stroke="none" stroke-width="0" fill="#ebebeb"></rect><rect x="299" y="248" width="1282" height="1" stroke="none" stroke-width="0" fill="#ebebeb"></rect><rect x="299" y="194" width="1282" height="1" stroke="none" stroke-width="0" fill="#ebebeb"></rect></g><g><rect x="299" y="704" width="1282" height="1" stroke="none" stroke-width="0" fill="#333333"></rect></g><g><path d="M427.6,597.9934717249323L683.8,607.8510050425792L940,640.675339310083L1196.1999999999998,674.1588964531986L1452.3999999999999,692.6985780866996" stroke="#0000ff" stroke-width="3" fill-opacity="1" fill="none"></path><path d="M427.6,598.1531506319429L683.8,608.7843979288999L940,651.3070862294772L1196.1999999999998,185.51182370003198L1452.3999999999999,459.9427926836476" stroke="#008000" stroke-width="3" fill-opacity="1" fill="none"></path><path d="M427.6,551.4943436689787L683.8,566.0027343752843L940,561.4823038644328L1196.1999999999998,527.9483784422956L1452.3999999999999,607.1179652467513" stroke="#eb0000" stroke-width="3" fill-opacity="1" fill="none"></path><path d="M427.6,607.6586053369296L683.8,630.4719741366043L940,661.509278960277L1196.1999999999998,477.51637269302626L1452.3999999999999,570.4089043049488" stroke="#1c5f2c" stroke-width="3" fill-opacity="1" fill="none"></path><path d="M427.6,595.2421056009706L683.8,614.3420059545301L940,628.7079132962857L1196.1999999999998,512.4829928763838L1452.3999999999999,579.041901828568" stroke="#91af40" stroke-width="3" fill-opacity="1" fill="none"></path><path d="M427.6,593.547171444262L683.8,610.7185398146993L940,597.4790254724242L1196.1999999999998,544.1429182515544L1452.3999999999999,609.2546139106897" stroke="#ab6c28" stroke-width="3" fill-opacity="1" fill="none"></path><path d="M427.6,439.57921543877563L683.8,380.4647998775068L940,292.4523882069682L1196.1999999999998,238.289852921035L1452.3999999999999,472.11168443889943" stroke="#f7e084" stroke-width="3" fill-opacity="1" fill="none"></path></g></g><g><circle cx="427.6" cy="597.9934717249323" r="3.5" stroke="none" stroke-width="0" fill="#0000ff"></circle><circle cx="683.8" cy="607.8510050425792" r="3.5" stroke="none" stroke-width="0" fill="#0000ff"></circle><circle cx="940" cy="640.675339310083" r="3.5" stroke="none" stroke-width="0" fill="#0000ff"></circle><circle cx="1196.1999999999998" cy="674.1588964531986" r="3.5" stroke="none" stroke-width="0" fill="#0000ff"></circle><circle cx="1452.3999999999999" cy="692.6985780866996" r="3.5" stroke="none" stroke-width="0" fill="#0000ff"></circle><circle cx="427.6" cy="598.1531506319429" r="3.5" stroke="none" stroke-width="0" fill="#008000"></circle><circle cx="683.8" cy="608.7843979288999" r="3.5" stroke="none" stroke-width="0" fill="#008000"></circle><circle cx="940" cy="651.3070862294772" r="3.5" stroke="none" stroke-width="0" fill="#008000"></circle><circle cx="1196.1999999999998" cy="185.51182370003198" r="3.5" stroke="none" stroke-width="0" fill="#008000"></circle><circle cx="1452.3999999999999" cy="459.9427926836476" r="3.5" stroke="none" stroke-width="0" fill="#008000"></circle><circle cx="427.6" cy="551.4943436689787" r="3.5" stroke="none" stroke-width="0" fill="#eb0000"></circle><circle cx="683.8" cy="566.0027343752843" r="3.5" stroke="none" stroke-width="0" fill="#eb0000"></circle><circle cx="940" cy="561.4823038644328" r="3.5" stroke="none" stroke-width="0" fill="#eb0000"></circle><circle cx="1196.1999999999998" cy="527.9483784422956" r="3.5" stroke="none" stroke-width="0" fill="#eb0000"></circle><circle cx="1452.3999999999999" cy="607.1179652467513" r="3.5" stroke="none" stroke-width="0" fill="#eb0000"></circle><circle cx="427.6" cy="607.6586053369296" r="3.5" stroke="none" stroke-width="0" fill="#1c5f2c"></circle><circle cx="683.8" cy="630.4719741366043" r="3.5" stroke="none" stroke-width="0" fill="#1c5f2c"></circle><circle cx="940" cy="661.509278960277" r="3.5" stroke="none" stroke-width="0" fill="#1c5f2c"></circle><circle cx="1196.1999999999998" cy="477.51637269302626" r="3.5" stroke="none" stroke-width="0" fill="#1c5f2c"></circle><circle cx="1452.3999999999999" cy="570.4089043049488" r="3.5" stroke="none" stroke-width="0" fill="#1c5f2c"></circle><circle cx="427.6" cy="595.2421056009706" r="3.5" stroke="none" stroke-width="0" fill="#91af40"></circle><circle cx="683.8" cy="614.3420059545301" r="3.5" stroke="none" stroke-width="0" fill="#91af40"></circle><circle cx="940" cy="628.7079132962857" r="3.5" stroke="none" stroke-width="0" fill="#91af40"></circle><circle cx="1196.1999999999998" cy="512.4829928763838" r="3.5" stroke="none" stroke-width="0" fill="#91af40"></circle><circle cx="1452.3999999999999" cy="579.041901828568" r="3.5" stroke="none" stroke-width="0" fill="#91af40"></circle><circle cx="427.6" cy="593.547171444262" r="3.5" stroke="none" stroke-width="0" fill="#ab6c28"></circle><circle cx="683.8" cy="610.7185398146993" r="3.5" stroke="none" stroke-width="0" fill="#ab6c28"></circle><circle cx="940" cy="597.4790254724242" r="3.5" stroke="none" stroke-width="0" fill="#ab6c28"></circle><circle cx="1196.1999999999998" cy="544.1429182515544" r="3.5" stroke="none" stroke-width="0" fill="#ab6c28"></circle><circle cx="1452.3999999999999" cy="609.2546139106897" r="3.5" stroke="none" stroke-width="0" fill="#ab6c28"></circle><circle cx="427.6" cy="439.57921543877563" r="3.5" stroke="none" stroke-width="0" fill="#f7e084"></circle><circle cx="683.8" cy="380.4647998775068" r="3.5" stroke="none" stroke-width="0" fill="#f7e084"></circle><circle cx="940" cy="292.4523882069682" r="3.5" stroke="none" stroke-width="0" fill="#f7e084"></circle><circle cx="1196.1999999999998" cy="238.289852921035" r="3.5" stroke="none" stroke-width="0" fill="#f7e084"></circle><circle cx="1452.3999999999999" cy="472.11168443889943" r="3.5" stroke="none" stroke-width="0" fill="#f7e084"></circle></g><g><g><text text-anchor="middle" x="427.6" y="731.3" font-family="Arial" font-size="18" stroke="none" stroke-width="0" fill="#222222">B2</text></g><g><text text-anchor="middle" x="683.8" y="731.3" font-family="Arial" font-size="18" stroke="none" stroke-width="0" fill="#222222">B3</text></g><g><text text-anchor="middle" x="940" y="731.3" font-family="Arial" font-size="18" stroke="none" stroke-width="0" fill="#222222">B4</text></g><g><text text-anchor="middle" x="1196.1999999999998" y="731.3" font-family="Arial" font-size="18" stroke="none" stroke-width="0" fill="#222222">B8</text></g><g><text text-anchor="middle" x="1452.3999999999999" y="731.3" font-family="Arial" font-size="18" stroke="none" stroke-width="0" fill="#222222">B9</text></g><g><text text-anchor="end" x="281" y="710.8" font-family="Arial" font-size="18" stroke="none" stroke-width="0" fill="#444444">0</text></g><g><text text-anchor="end" x="281" y="657.0999999999999" font-family="Arial" font-size="18" stroke="none" stroke-width="0" fill="#444444">500</text></g><g><text text-anchor="end" x="281" y="603.4" font-family="Arial" font-size="18" stroke="none" stroke-width="0" fill="#444444">1,000</text></g><g><text text-anchor="end" x="281" y="549.6999999999999" font-family="Arial" font-size="18" stroke="none" stroke-width="0" fill="#444444">1,500</text></g><g><text text-anchor="end" x="281" y="496" font-family="Arial" font-size="18" stroke="none" stroke-width="0" fill="#444444">2,000</text></g><g><text text-anchor="end" x="281" y="442.3" font-family="Arial" font-size="18" stroke="none" stroke-width="0" fill="#444444">2,500</text></g><g><text text-anchor="end" x="281" y="388.6" font-family="Arial" font-size="18" stroke="none" stroke-width="0" fill="#444444">3,000</text></g><g><text text-anchor="end" x="281" y="334.90000000000003" font-family="Arial" font-size="18" stroke="none" stroke-width="0" fill="#444444">3,500</text></g><g><text text-anchor="end" x="281" y="281.2" font-family="Arial" font-size="18" stroke="none" stroke-width="0" fill="#444444">4,000</text></g><g><text text-anchor="end" x="281" y="227.5" font-family="Arial" font-size="18" stroke="none" stroke-width="0" fill="#444444">4,500</text></g><g><text text-anchor="end" x="281" y="173.8" font-family="Arial" font-size="18" stroke="none" stroke-width="0" fill="#444444">5,000</text></g></g></g><g><g><text text-anchor="middle" x="940" y="808.8" font-family="Arial" font-size="18" font-style="italic" stroke="none" stroke-width="0" fill="#222222">Wavelength Bands</text><rect x="299" y="793.5" width="1282" height="18" stroke="none" stroke-width="0" fill-opacity="0" fill="#ffffff"></rect></g><g><text text-anchor="middle" x="124.3" y="436" font-family="Arial" font-size="18" font-style="italic" transform="rotate(-90 124.3 436)" stroke="none" stroke-width="0" fill="#222222">Reflectance</text><path d="M108.99999999999999,705L109.00000000000001,167L127.00000000000001,167L126.99999999999999,705Z" stroke="none" stroke-width="0" fill-opacity="0" fill="#ffffff"></path></g></g><g></g></svg>